<?xml version="1.0" standalone="no"?>
<!DOCTYPE svg PUBLIC "-//W3C//DTD SVG 20010904//EN"
 "http://www.w3.org/TR/2001/REC-SVG-20010904/DTD/svg10.dtd">
<svg version="1.0" xmlns="http://www.w3.org/2000/svg"
 width="300.000000pt" height="182.000000pt" viewBox="0 0 300.000000 182.000000"
 preserveAspectRatio="xMidYMid meet">
<metadata>
Created by potrace 1.10, written by Peter Selinger 2001-2011
</metadata>
<g transform="translate(0.000000,182.000000) scale(0.100000,-0.100000)"
fill="#0f1bea" stroke="none">
<path d="M1535 1764 c-44 -24 -88 -44 -97 -44 -10 0 -18 -5 -18 -10 0 -6 -11
-16 -26 -22 l-25 -12 32 -10 c46 -15 46 -30 0 -50 -32 -15 -43 -16 -62 -5 -13
6 -27 16 -30 22 -4 5 -63 -20 -140 -60 -97 -50 -138 -76 -149 -97 -14 -26 -14
-29 8 -43 15 -11 22 -25 22 -47 0 -29 3 -32 51 -43 57 -14 69 -11 69 17 0 22
24 36 270 162 172 89 187 95 218 85 24 -7 39 -7 57 3 22 12 23 14 8 25 -14 11
-15 15 -4 29 22 27 5 92 -33 121 -18 14 -41 25 -52 24 -10 0 -55 -20 -99 -45z
m-75 -156 c0 -7 3 -23 6 -35 5 -18 -1 -25 -36 -43 -23 -12 -43 -20 -45 -18 -1
2 -5 18 -8 36 -6 29 -3 35 26 52 37 23 57 25 57 8z"/>
<path d="M677 1671 c-409 -212 -533 -280 -557 -303 -14 -14 -34 -52 -45 -84
-10 -32 -30 -69 -43 -82 -22 -21 -24 -29 -20 -89 4 -63 6 -68 43 -100 27 -23
46 -32 60 -29 12 3 38 -7 68 -26 45 -29 51 -30 62 -15 21 29 30 19 31 -36 1
-99 46 -177 125 -218 52 -26 139 -25 195 1 l42 21 243 -119 c134 -65 309 -153
388 -196 140 -74 171 -84 171 -51 0 8 4 15 9 15 4 0 11 -33 13 -72 8 -122 66
-202 170 -233 89 -26 157 -14 215 39 l36 32 71 -25 c39 -15 82 -33 96 -43 14
-9 48 -24 75 -33 l50 -18 92 46 c72 37 99 45 122 41 37 -8 78 16 86 49 8 31
216 137 266 135 46 -2 79 17 85 50 4 21 22 37 80 70 83 47 87 55 82 152 -3 63
-4 65 -45 93 -26 17 -43 36 -43 48 0 18 -3 17 -40 -7 -48 -32 -59 -26 -67 35
-5 34 -2 42 13 47 11 4 31 16 46 26 34 23 36 23 42 -9 2 -16 3 -4 2 26 -3 43
-8 59 -26 73 -46 38 -295 172 -443 239 -83 38 -159 73 -168 78 -10 6 -20 6
-27 -1 -33 -33 -65 47 -40 99 17 37 55 44 62 11 3 -13 7 -32 9 -43 3 -14 5
-12 6 8 2 52 -14 67 -73 67 -40 0 -57 5 -71 20 -10 11 -23 19 -29 17 -6 -2
-22 0 -35 5 -23 8 -23 8 -7 -14 61 -86 84 -146 59 -155 -7 -3 -13 0 -13 6 0
14 -64 122 -90 152 -14 16 -12 10 6 -19 15 -23 24 -45 21 -48 -3 -4 4 -15 16
-24 45 -37 6 -29 -94 19 -57 27 -104 49 -105 48 -8 -12 -68 -180 -80 -224 -2
-7 -22 -20 -44 -29 -27 -11 -42 -24 -46 -40 -5 -18 -34 -39 -118 -83 l-111
-60 -17 37 c-24 54 -22 69 15 88 41 21 40 21 32 34 -5 7 -18 4 -42 -10 -20
-12 -39 -17 -43 -13 -4 4 -24 45 -45 90 -42 92 -40 106 18 119 18 3 37 10 42
14 18 14 167 91 170 88 1 -2 7 -12 13 -23 10 -18 12 -17 29 22 16 36 46 63 72
63 6 0 31 -175 31 -216 0 -15 -56 -38 -70 -29 -7 4 -10 24 -8 49 2 22 -1 56
-8 74 l-11 34 -12 -48 c-7 -27 -9 -65 -5 -88 6 -36 3 -42 -21 -62 -51 -40 -21
-42 59 -3 44 22 87 39 97 39 13 0 24 21 44 88 15 48 29 90 32 95 2 4 -21 19
-51 33 -61 28 -60 27 -46 55 12 21 119 79 146 79 10 0 31 -15 46 -32 l29 -33
-26 38 c-16 21 -36 37 -47 37 -18 0 -550 -271 -572 -291 -6 -6 -1 -29 13 -61
13 -29 48 -109 77 -178 l53 -125 -29 -3 c-27 -3 -32 -9 -47 -60 -14 -45 -18
-92 -18 -229 1 -95 -1 -173 -4 -173 -21 0 -673 335 -681 350 -5 10 -10 29 -10
42 -1 38 -48 160 -80 206 -33 46 -39 104 -20 172 11 40 102 158 152 198 19 15
43 37 55 49 l22 22 -31 10 c-17 6 -39 11 -49 11 -11 0 -19 4 -19 9 0 11 132
88 294 172 l108 56 -87 32 c-47 17 -97 31 -111 31 -13 0 -111 -45 -217 -99z
m1450 -326 c1 -5 -2 -17 -7 -25 -9 -13 -11 -13 -20 0 -15 23 -12 42 7 38 9 -2
18 -7 20 -13z m47 -53 c-4 -18 -10 -32 -15 -32 -12 0 -11 14 3 45 15 32 20 27
12 -13z m-374 18 c0 -5 -2 -10 -4 -10 -3 0 -8 5 -11 10 -3 6 -1 10 4 10 6 0
11 -4 11 -10z m-1612 -12 c16 -16 15 -53 -3 -68 -18 -15 -40 -3 -26 14 7 9 7
16 -1 24 -11 11 -5 42 10 42 4 0 13 -5 20 -12z m1949 -10 c-3 -8 -6 -5 -6 6
-1 11 2 17 5 13 3 -3 4 -12 1 -19z m-1887 -41 c0 -13 -7 -32 -16 -43 -14 -17
-15 -17 -10 -1 3 10 6 30 6 43 0 13 5 24 10 24 6 0 10 -10 10 -23z m44 -45
c-9 -46 -20 -39 -16 9 3 24 8 37 13 32 5 -5 6 -24 3 -41z m146 -281 c28 -53
-4 -81 -48 -43 -16 13 -18 22 -12 40 11 27 46 29 60 3z m47 -147 c-15 -13 -33
-24 -40 -24 -7 0 3 10 21 21 17 12 32 26 32 32 0 6 3 7 8 3 4 -4 -6 -19 -21
-32z m2252 -64 c-22 -14 -34 2 -13 17 13 10 20 10 23 2 2 -6 -3 -15 -10 -19z
m-39 -14 c0 -15 -29 -30 -39 -20 -3 3 3 12 13 20 24 17 26 17 26 0z m84 -28
c21 -32 41 -235 25 -254 -21 -25 -29 -3 -29 80 0 111 -9 176 -26 176 -7 0 -16
5 -19 10 -13 21 35 9 49 -12z m-154 -19 c-17 -14 -26 -17 -28 -9 -5 14 16 30
38 30 10 -1 7 -7 -10 -21z m70 2 c0 -17 -12 -41 -21 -41 -10 0 -12 33 -2 43 9
10 23 9 23 -2z m278 -95 c2 -31 -1 -64 -7 -74 -5 -10 -37 -33 -69 -50 l-60
-32 -6 23 c-3 12 -6 36 -6 52 0 27 7 34 55 60 69 38 73 54 4 19 -35 -17 -55
-22 -62 -15 -16 16 -1 39 43 61 22 11 40 28 40 36 0 14 5 13 33 -5 29 -18 32
-25 35 -75z m-388 74 c0 -10 -32 -30 -49 -30 -19 0 -12 17 12 28 28 14 37 14
37 2z m70 -20 c0 -23 -39 -38 -51 -19 -6 10 -2 20 12 31 24 20 39 16 39 -12z
m-140 -15 c0 -11 -50 -36 -61 -29 -8 4 -4 11 12 20 24 13 49 18 49 9z m70 -19
c0 -22 -16 -36 -41 -36 -16 0 -10 39 9 49 26 16 32 13 32 -13z m97 -8 c-3 -8
-6 -5 -6 6 -1 11 2 17 5 13 3 -3 4 -12 1 -19z m-27 -7 c0 -21 -29 -36 -43 -22
-5 5 0 15 14 25 29 20 29 20 29 -3z m-220 -4 c0 -17 -47 -40 -55 -27 -3 5 7
16 22 24 35 19 33 19 33 3z m90 -12 c0 -18 -46 -49 -60 -40 -18 11 -11 34 17
49 30 15 43 13 43 -9z m70 -20 c0 -12 -28 -35 -44 -35 -14 0 -5 30 12 39 24
14 32 13 32 -4z m-230 -4 c0 -11 -31 -24 -39 -16 -3 3 1 10 9 15 19 12 30 12
30 1z m80 -6 c0 -8 -4 -15 -9 -15 -13 0 -22 16 -14 24 11 11 23 6 23 -9z m216
-4 c-3 -5 -16 -11 -28 -14 -22 -6 -22 -5 -4 8 22 17 40 20 32 6z m-376 -71 l0
-61 -82 -39 c-45 -22 -89 -40 -97 -40 -30 0 -51 32 -51 77 0 35 3 43 19 43 10
0 59 18 107 40 49 22 92 40 97 40 4 0 7 -27 7 -60z m145 36 c20 -30 38 -225
23 -243 -19 -24 -28 -2 -28 70 0 106 -11 177 -26 177 -7 0 -16 5 -19 10 -14
22 36 8 50 -14z m95 11 c0 -11 -39 -37 -55 -37 -15 0 -1 29 18 38 30 15 37 14
37 -1z m188 -7 c1 -10 -32 -33 -103 -69 -58 -29 -105 -58 -105 -63 0 -5 47 16
105 47 116 63 124 61 107 -17 -9 -39 -10 -40 -11 -11 -1 17 -5 34 -9 37 -5 3
-53 -18 -108 -47 l-99 -52 -6 -45 c-6 -43 -6 -42 -9 23 -2 37 -4 77 -4 89 -1
19 17 32 99 75 100 53 137 61 143 33z m-128 -10 c-24 -15 -37 -11 -16 5 11 8
22 12 25 9 3 -3 -1 -9 -9 -14z m-249 -23 c-8 -8 -11 -7 -11 4 0 20 13 34 18
19 3 -7 -1 -17 -7 -23z m175 -12 c-11 -8 -25 -15 -30 -15 -6 0 -2 7 8 15 11 8
25 15 30 15 6 0 2 -7 -8 -15z m-179 -42 c-4 -3 -7 0 -7 7 0 7 3 10 7 7 3 -4 3
-10 0 -14z m-705 -70 c10 -9 18 -29 18 -46 0 -27 -2 -29 -27 -22 -50 12 -69
45 -41 73 16 16 28 15 50 -5z m737 -17 c10 -11 -1 -21 -54 -51 -78 -43 -81
-59 -5 -20 29 14 55 24 58 21 3 -3 1 -32 -4 -63 l-9 -58 -70 -37 c-38 -21 -73
-38 -77 -38 -5 0 -8 18 -8 40 0 56 -18 50 -22 -7 -3 -45 -5 -48 -28 -45 -14 2
-41 11 -60 20 -33 16 -35 20 -38 75 -4 73 9 91 58 83 29 -4 51 4 125 43 99 53
117 58 134 37z m-663 -131 c-23 -35 -60 -51 -88 -38 -21 9 -19 10 12 11 25 1
42 9 60 30 30 34 39 33 16 -3z"/>
<path d="M2212 410 c0 -19 2 -27 5 -17 2 9 2 25 0 35 -3 9 -5 1 -5 -18z"/>
<path d="M2250 430 c0 -7 3 -10 7 -7 3 4 3 10 0 14 -4 3 -7 0 -7 -7z"/>
<path d="M2133 385 c0 -22 2 -30 4 -17 2 12 2 30 0 40 -3 9 -5 -1 -4 -23z"/>
<path d="M2177 403 c-4 -3 -7 -11 -7 -17 0 -6 5 -5 12 2 6 6 9 14 7 17 -3 3
-9 2 -12 -2z"/>
<path d="M2083 360 c0 -25 2 -35 4 -22 2 12 2 32 0 45 -2 12 -4 2 -4 -23z"/>
<path d="M2070 201 c0 -9 44 -31 62 -31 16 0 -1 13 -34 28 -16 6 -28 8 -28 3z"/>
<path d="M1253 1763 c4 -3 10 -3 14 0 3 4 0 7 -7 7 -7 0 -10 -3 -7 -7z"/>
<path d="M1293 1753 c4 -3 10 -3 14 0 3 4 0 7 -7 7 -7 0 -10 -3 -7 -7z"/>
<path d="M1323 1743 c4 -3 10 -3 14 0 3 4 0 7 -7 7 -7 0 -10 -3 -7 -7z"/>
<path d="M1363 1733 c4 -3 10 -3 14 0 3 4 0 7 -7 7 -7 0 -10 -3 -7 -7z"/>
<path d="M1910 1545 c13 -14 26 -25 28 -25 3 0 -5 11 -18 25 -13 14 -26 25
-28 25 -3 0 5 -11 18 -25z"/>
<path d="M1955 1490 c3 -5 8 -10 11 -10 3 0 2 5 -1 10 -3 6 -8 10 -11 10 -3 0
-2 -4 1 -10z"/>
<path d="M1959 1432 c6 -12 16 -24 22 -28 8 -4 8 -1 0 14 -6 12 -16 24 -22 28
-8 4 -8 1 0 -14z"/>
<path d="M1995 1440 c3 -5 8 -10 11 -10 3 0 2 5 -1 10 -3 6 -8 10 -11 10 -3 0
-2 -4 1 -10z"/>
<path d="M704 1348 c-45 -49 -94 -112 -94 -121 0 -6 87 -47 100 -47 4 0 13 15
20 33 6 17 23 60 37 94 14 34 22 67 18 72 -13 22 -43 10 -81 -31z m56 3 c0
-22 -23 -70 -31 -65 -13 8 -11 48 3 62 14 14 28 16 28 3z m-59 -58 c12 -70 2
-94 -30 -74 -11 7 -11 15 -1 45 10 32 28 48 31 29z"/>
<path d="M820 1314 c-27 -61 -36 -99 -23 -91 6 4 17 27 24 52 16 54 43 66 95
42 37 -18 37 -7 -2 -129 -10 -32 -21 -58 -24 -58 -4 0 -28 7 -54 16 -42 15
-47 19 -42 40 4 13 2 24 -3 24 -8 0 -25 -49 -19 -55 7 -7 110 -45 122 -45 8 0
28 41 49 101 l34 101 -54 24 c-29 13 -60 24 -69 24 -8 0 -23 -20 -34 -46z"/>
<path d="M1042 1283 c5 -18 -35 -209 -45 -215 -6 -3 5 -13 24 -21 160 -69 191
-88 186 -108 -9 -33 9 -65 42 -80 16 -7 32 -22 35 -32 7 -27 29 -16 40 19 4
16 12 36 16 45 9 17 -31 169 -70 263 -21 53 -23 55 -110 95 -84 39 -122 50
-118 34z m105 -53 c29 -6 62 -21 76 -34 21 -19 77 -159 77 -192 0 -6 -24 -14
-52 -17 -44 -4 -61 -1 -103 21 -49 26 -50 28 -60 88 -6 37 -14 59 -21 57 -8
-2 -9 -18 -3 -46 8 -47 5 -59 -16 -51 -10 4 -13 19 -10 57 2 29 4 55 5 60 0 4
7 7 15 7 14 0 20 22 15 65 -2 15 1 17 12 7 8 -6 37 -16 65 -22z m156 -288 c9
-8 17 -23 17 -34 0 -19 -17 -22 -57 -12 -25 7 -31 42 -11 62 12 12 22 9 51
-16z m-76 1 c-4 -3 -7 0 -7 7 0 7 3 10 7 7 3 -4 3 -10 0 -14z"/>
<path d="M2250 1230 c0 -7 3 -10 7 -7 3 4 3 10 0 14 -4 3 -7 0 -7 -7z"/>
<path d="M635 1110 c-11 -18 6 -50 35 -65 36 -18 37 -18 44 0 8 23 -4 44 -35
60 -33 18 -36 18 -44 5z m65 -31 c0 -12 -43 6 -48 20 -3 9 2 9 22 0 14 -7 26
-16 26 -20z"/>
<path d="M976 971 c-10 -15 12 -59 34 -71 29 -15 50 -6 50 23 0 17 -10 28 -35
40 -41 20 -42 20 -49 8z m60 -26 c24 -18 7 -19 -26 0 -16 9 -19 14 -9 15 8 0
24 -7 35 -15z"/>
<path d="M1068 873 c7 -3 16 -2 19 1 4 3 -2 6 -13 5 -11 0 -14 -3 -6 -6z"/>
<path d="M1185 856 c57 -26 78 -47 99 -96 8 -19 15 -29 16 -22 1 49 -99 142
-152 142 -7 0 10 -11 37 -24z"/>
<path d="M1059 813 c-13 -17 -13 -17 6 -3 11 8 22 16 24 17 2 2 0 3 -6 3 -6 0
-17 -8 -24 -17z"/>
<path d="M1191 807 c18 -12 39 -34 46 -47 7 -14 13 -18 13 -10 -1 25 -58 80
-84 80 -5 0 6 -10 25 -23z"/>
<path d="M1000 800 c0 -7 3 -10 7 -7 3 4 3 10 0 14 -4 3 -7 0 -7 -7z"/>
<path d="M1139 784 c-8 -9 -22 -14 -37 -11 -20 4 -23 2 -17 -17 9 -29 9 -48 0
-70 -7 -17 -5 -19 22 -13 23 5 35 1 48 -13 25 -28 35 -25 35 10 0 18 6 33 15
36 19 8 19 20 1 27 -10 4 -13 1 -10 -8 9 -23 -36 -29 -64 -8 -33 24 -39 43
-15 43 11 0 24 5 31 12 9 9 14 6 21 -13 11 -27 14 -16 5 19 -7 26 -17 28 -35
6z"/>
<path d="M990 743 c0 -22 10 -59 23 -84 19 -35 36 -51 86 -76 83 -44 123 -43
167 1 35 35 47 81 19 70 -8 -4 -22 -1 -29 5 -11 10 -16 8 -21 -9 -11 -36 -48
-45 -100 -26 -54 21 -83 55 -91 108 -4 21 -10 38 -14 38 -5 0 -15 3 -24 6 -13
5 -16 -1 -16 -33z"/>
<path d="M2860 745 c-11 -13 -15 -13 -22 -3 -14 22 -29 -11 -15 -34 10 -15 13
-16 15 -3 3 14 15 19 35 16 4 0 7 8 7 19 0 24 -4 25 -20 5z"/>
<path d="M2900 730 c0 -7 3 -10 7 -7 3 4 3 10 0 14 -4 3 -7 0 -7 -7z"/>
<path d="M1250 720 c0 -7 3 -10 7 -7 3 4 3 10 0 14 -4 3 -7 0 -7 -7z"/>
<path d="M1250 690 c0 -7 3 -10 7 -7 3 4 3 10 0 14 -4 3 -7 0 -7 -7z"/>
<path d="M931 644 c0 -11 3 -14 6 -6 3 7 2 16 -1 19 -3 4 -6 -2 -5 -13z"/>
</g>
</svg>
